<svg width="24" height="24" viewBox="0 0 24 24" fill="none" xmlns="http://www.w3.org/2000/svg">
<path d="M20 5C18.89 4.65 17.67 4.5 16.5 4.5C14.55 4.5 12.45 4.9 11 6C9.55 4.9 7.45 4.5 5.5 4.5C3.55 4.5 1.45 4.9 0 6V20.65C0 20.9 0.25 21.15 0.5 21.15C0.6 21.15 0.65 21.1 0.75 21.1C2.1 20.45 4.05 20 5.5 20C7.45 20 9.55 20.4 11 21.5C12.35 20.65 14.8 20 16.5 20C18.15 20 19.85 20.3 21.25 21.05C21.35 21.1 21.4 21.1 21.5 21.1C21.75 21.1 22 20.85 22 20.6V6C21.4 5.55 20.75 5.25 20 5ZM20 18.5C18.9 18.15 17.7 18 16.5 18C14.8 18 12.35 18.65 11 19.5V8C12.35 7.15 14.8 6.5 16.5 6.5C17.7 6.5 18.9 6.65 20 7V18.5Z" fill="url(#paint0_linear_1_288)"/>
<defs>
<linearGradient id="paint0_linear_1_288" x1="11" y1="4.5" x2="11" y2="21.5" gradientUnits="userSpaceOnUse">
<stop stop-color="#4A4DB8"/>
<stop offset="1" stop-color="#F7F7FF"/>
</linearGradient>
</defs>
</svg>
